# /Game/ArtTests/ART005/Zones/SM_ART005_ZoneGlyph_Ring - S08GlyphPieces 'ring' merged (tools/art/t42_zone_content.py)
o SM_ART005_ZoneGlyph_Ring
s off
usemtl ZoneGlyph
v -10.000000 10.000000 -0.200000
v 10.000000 10.000000 -0.200000
v -10.000000 6.000000 -0.200000
v 10.000000 6.000000 -0.200000
v -10.000000 10.000000 0.200000
v 10.000000 10.000000 0.200000
v -10.000000 6.000000 0.200000
v 10.000000 6.000000 0.200000
v -10.000000 -6.000000 -0.200000
v 10.000000 -6.000000 -0.200000
v -10.000000 -10.000000 -0.200000
v 10.000000 -10.000000 -0.200000
v -10.000000 -6.000000 0.200000
v 10.000000 -6.000000 0.200000
v -10.000000 -10.000000 0.200000
v 10.000000 -10.000000 0.200000
v -10.000000 10.000000 -0.200000
v -6.000000 10.000000 -0.200000
v -10.000000 -10.000000 -0.200000
v -6.000000 -10.000000 -0.200000
v -10.000000 10.000000 0.200000
v -6.000000 10.000000 0.200000
v -10.000000 -10.000000 0.200000
v -6.000000 -10.000000 0.200000
v 6.000000 10.000000 -0.200000
v 10.000000 10.000000 -0.200000
v 6.000000 -10.000000 -0.200000
v 10.000000 -10.000000 -0.200000
v 6.000000 10.000000 0.200000
v 10.000000 10.000000 0.200000
v 6.000000 -10.000000 0.200000
v 10.000000 -10.000000 0.200000
vt 0.0 0.0
vt 1.0 0.0
vt 1.0 1.0
vt 0.0 1.0
vn 0.000000 -0.000000 -1.000000
vn -0.000000 -0.000000 1.000000
vn -0.000000 1.000000 -0.000000
vn -0.000000 -1.000000 -0.000000
vn -1.000000 -0.000000 0.000000
vn 1.000000 -0.000000 -0.000000
vn 0.000000 -0.000000 -1.000000
vn -0.000000 -0.000000 1.000000
vn -0.000000 1.000000 -0.000000
vn -0.000000 -1.000000 -0.000000
vn -1.000000 -0.000000 0.000000
vn 1.000000 -0.000000 -0.000000
vn 0.000000 -0.000000 -1.000000
vn -0.000000 -0.000000 1.000000
vn -0.000000 1.000000 -0.000000
vn -0.000000 -1.000000 -0.000000
vn -1.000000 -0.000000 0.000000
vn 1.000000 -0.000000 -0.000000
vn 0.000000 -0.000000 -1.000000
vn -0.000000 -0.000000 1.000000
vn -0.000000 1.000000 -0.000000
vn -0.000000 -1.000000 -0.000000
vn -1.000000 -0.000000 0.000000
vn 1.000000 -0.000000 -0.000000
f 2/1/1 4/2/1 3/3/1 1/4/1
f 7/1/2 8/2/2 6/3/2 5/4/2
f 5/1/3 6/2/3 2/3/3 1/4/3
f 4/1/4 8/2/4 7/3/4 3/4/4
f 3/1/5 7/2/5 5/3/5 1/4/5
f 6/1/6 8/2/6 4/3/6 2/4/6
f 10/1/7 12/2/7 11/3/7 9/4/7
f 15/1/8 16/2/8 14/3/8 13/4/8
f 13/1/9 14/2/9 10/3/9 9/4/9
f 12/1/10 16/2/10 15/3/10 11/4/10
f 11/1/11 15/2/11 13/3/11 9/4/11
f 14/1/12 16/2/12 12/3/12 10/4/12
f 18/1/13 20/2/13 19/3/13 17/4/13
f 23/1/14 24/2/14 22/3/14 21/4/14
f 21/1/15 22/2/15 18/3/15 17/4/15
f 20/1/16 24/2/16 23/3/16 19/4/16
f 19/1/17 23/2/17 21/3/17 17/4/17
f 22/1/18 24/2/18 20/3/18 18/4/18
f 26/1/19 28/2/19 27/3/19 25/4/19
f 31/1/20 32/2/20 30/3/20 29/4/20
f 29/1/21 30/2/21 26/3/21 25/4/21
f 28/1/22 32/2/22 31/3/22 27/4/22
f 27/1/23 31/2/23 29/3/23 25/4/23
f 30/1/24 32/2/24 28/3/24 26/4/24
