# /Game/ArtTests/ART005/Zones/SM_ART005_ZoneGlyph_Tee - S08GlyphPieces 'tee' merged (tools/art/t42_zone_content.py)
o SM_ART005_ZoneGlyph_Tee
s off
usemtl ZoneGlyph
v -10.000000 10.500000 -0.200000
v 10.000000 10.500000 -0.200000
v -10.000000 5.500000 -0.200000
v 10.000000 5.500000 -0.200000
v -10.000000 10.500000 0.200000
v 10.000000 10.500000 0.200000
v -10.000000 5.500000 0.200000
v 10.000000 5.500000 0.200000
v -2.500000 6.000000 -0.200000
v 2.500000 6.000000 -0.200000
v -2.500000 -10.000000 -0.200000
v 2.500000 -10.000000 -0.200000
v -2.500000 6.000000 0.200000
v 2.500000 6.000000 0.200000
v -2.500000 -10.000000 0.200000
v 2.500000 -10.000000 0.200000
vt 0.0 0.0
vt 1.0 0.0
vt 1.0 1.0
vt 0.0 1.0
vn 0.000000 -0.000000 -1.000000
vn -0.000000 -0.000000 1.000000
vn -0.000000 1.000000 -0.000000
vn -0.000000 -1.000000 -0.000000
vn -1.000000 -0.000000 0.000000
vn 1.000000 -0.000000 -0.000000
vn 0.000000 -0.000000 -1.000000
vn -0.000000 -0.000000 1.000000
vn -0.000000 1.000000 -0.000000
vn -0.000000 -1.000000 -0.000000
vn -1.000000 -0.000000 0.000000
vn 1.000000 -0.000000 -0.000000
f 2/1/1 4/2/1 3/3/1 1/4/1
f 7/1/2 8/2/2 6/3/2 5/4/2
f 5/1/3 6/2/3 2/3/3 1/4/3
f 4/1/4 8/2/4 7/3/4 3/4/4
f 3/1/5 7/2/5 5/3/5 1/4/5
f 6/1/6 8/2/6 4/3/6 2/4/6
f 10/1/7 12/2/7 11/3/7 9/4/7
f 15/1/8 16/2/8 14/3/8 13/4/8
f 13/1/9 14/2/9 10/3/9 9/4/9
f 12/1/10 16/2/10 15/3/10 11/4/10
f 11/1/11 15/2/11 13/3/11 9/4/11
f 14/1/12 16/2/12 12/3/12 10/4/12
