# /Game/ArtTests/ART005/Zones/SM_ART005_ZoneGlyph_Bar1 - S08GlyphPieces 'bar1' merged (tools/art/t42_zone_content.py)
o SM_ART005_ZoneGlyph_Bar1
s off
usemtl ZoneGlyph
v -2.500000 10.000000 -0.200000
v 2.500000 10.000000 -0.200000
v -2.500000 -10.000000 -0.200000
v 2.500000 -10.000000 -0.200000
v -2.500000 10.000000 0.200000
v 2.500000 10.000000 0.200000
v -2.500000 -10.000000 0.200000
v 2.500000 -10.000000 0.200000
vt 0.0 0.0
vt 1.0 0.0
vt 1.0 1.0
vt 0.0 1.0
vn 0.000000 -0.000000 -1.000000
vn -0.000000 -0.000000 1.000000
vn -0.000000 1.000000 -0.000000
vn -0.000000 -1.000000 -0.000000
vn -1.000000 -0.000000 0.000000
vn 1.000000 -0.000000 -0.000000
f 2/1/1 4/2/1 3/3/1 1/4/1
f 7/1/2 8/2/2 6/3/2 5/4/2
f 5/1/3 6/2/3 2/3/3 1/4/3
f 4/1/4 8/2/4 7/3/4 3/4/4
f 3/1/5 7/2/5 5/3/5 1/4/5
f 6/1/6 8/2/6 4/3/6 2/4/6
